<svg width="24" height="24" viewBox="0 0 24 24" fill="none" xmlns="http://www.w3.org/2000/svg">
<path d="M22.0001 16.92V19.92C22.0012 20.1985 21.9442 20.4742 21.8326 20.7293C21.721 20.9845 21.5574 21.2136 21.3522 21.4019C21.147 21.5901 20.9047 21.7335 20.6408 21.8227C20.377 21.9119 20.0975 21.9451 19.8201 21.92C16.7429 21.5856 13.7871 20.5341 11.1901 18.85C8.77389 17.3147 6.7254 15.2662 5.19006 12.85C3.50004 10.2412 2.4483 7.27096 2.12006 4.17997C2.09507 3.90344 2.12793 3.62473 2.21656 3.36159C2.30519 3.09846 2.44763 2.85666 2.63483 2.65159C2.82202 2.44652 3.04986 2.28269 3.30385 2.1705C3.55784 2.05831 3.8324 2.00024 4.11006 1.99998H7.11006C7.59537 1.9952 8.06585 2.16706 8.43382 2.48351C8.80179 2.79997 9.04214 3.23943 9.11006 3.71997C9.23668 4.68005 9.47151 5.62271 9.81006 6.52998C9.9446 6.8879 9.97372 7.27689 9.89397 7.65086C9.81421 8.02483 9.62892 8.36809 9.36006 8.63998L8.09006 9.90998C9.51362 12.4135 11.5866 14.4864 14.0901 15.91L15.3601 14.64C15.632 14.3711 15.9753 14.1858 16.3492 14.1061C16.7232 14.0263 17.1122 14.0555 17.4701 14.19C18.3774 14.5286 19.32 14.7634 20.2801 14.89C20.7659 14.9585 21.2095 15.2032 21.5266 15.5775C21.8438 15.9518 22.0123 16.4296 22.0001 16.92Z" stroke="white" stroke-width="2" stroke-linecap="round" stroke-linejoin="round"/>
</svg>
