<svg width="28" height="28" viewBox="0 0 28 28" fill="none" xmlns="http://www.w3.org/2000/svg">
<path d="M7 2.33325L3.5 6.99992V23.3333C3.5 23.9521 3.74583 24.5456 4.18342 24.9832C4.621 25.4208 5.21449 25.6666 5.83333 25.6666H22.1667C22.7855 25.6666 23.379 25.4208 23.8166 24.9832C24.2542 24.5456 24.5 23.9521 24.5 23.3333V6.99992L21 2.33325H7Z" stroke="#5D4157" stroke-width="2.33333" stroke-linecap="round" stroke-linejoin="round"/>
<path d="M3.5 7H24.5" stroke="#5D4157" stroke-width="2.33333" stroke-linecap="round" stroke-linejoin="round"/>
<path d="M18.6667 11.6667C18.6667 12.9044 18.175 14.0914 17.2999 14.9666C16.4247 15.8417 15.2377 16.3334 14 16.3334C12.7624 16.3334 11.5754 15.8417 10.7002 14.9666C9.82504 14.0914 9.33337 12.9044 9.33337 11.6667" stroke="#5D4157" stroke-width="2.33333" stroke-linecap="round" stroke-linejoin="round"/>
</svg>
