<svg width="28" height="28" viewBox="0 0 28 28" fill="none" xmlns="http://www.w3.org/2000/svg">
<path d="M5.25002 19.2499C3.50002 20.7199 2.91669 25.0832 2.91669 25.0832C2.91669 25.0832 7.28002 24.4999 8.75002 22.7499C9.57835 21.7699 9.56669 20.2649 8.64502 19.3549C8.19154 18.9221 7.5942 18.672 6.96762 18.6526C6.34104 18.6332 5.72938 18.8459 5.25002 19.2499Z" stroke="#5D4157" stroke-width="2.33333" stroke-linecap="round" stroke-linejoin="round"/>
<path d="M14 17.5L10.5 14C11.1208 12.3893 11.9026 10.8454 12.8333 9.39163C14.1927 7.21811 16.0856 5.42852 18.3318 4.19307C20.5781 2.95762 23.1031 2.3174 25.6667 2.3333C25.6667 5.50663 24.7567 11.0833 18.6667 15.1666C17.193 16.0985 15.6297 16.8802 14 17.5Z" stroke="#5D4157" stroke-width="2.33333" stroke-linecap="round" stroke-linejoin="round"/>
<path d="M10.5 14.0001H4.66669C4.66669 14.0001 5.30835 10.4651 7.00002 9.33344C8.89002 8.07344 12.8334 9.33344 12.8334 9.33344" stroke="#5D4157" stroke-width="2.33333" stroke-linecap="round" stroke-linejoin="round"/>
<path d="M14 17.5001V23.3334C14 23.3334 17.535 22.6917 18.6667 21.0001C19.9267 19.1101 18.6667 15.1667 18.6667 15.1667" stroke="#5D4157" stroke-width="2.33333" stroke-linecap="round" stroke-linejoin="round"/>
</svg>
