<svg width="32" height="32" viewBox="0 0 32 32" fill="none" xmlns="http://www.w3.org/2000/svg">
<path d="M16 29.3333C23.3638 29.3333 29.3334 23.3638 29.3334 16C29.3334 8.63619 23.3638 2.66666 16 2.66666C8.63622 2.66666 2.66669 8.63619 2.66669 16C2.66669 23.3638 8.63622 29.3333 16 29.3333Z" stroke="white" stroke-width="2.66667" stroke-linecap="round" stroke-linejoin="round"/>
<path d="M16 24C20.4183 24 24 20.4183 24 16C24 11.5817 20.4183 8 16 8C11.5817 8 8 11.5817 8 16C8 20.4183 11.5817 24 16 24Z" stroke="white" stroke-width="2.66667" stroke-linecap="round" stroke-linejoin="round"/>
<path d="M16 18.6666C17.4727 18.6666 18.6666 17.4727 18.6666 16C18.6666 14.5272 17.4727 13.3333 16 13.3333C14.5272 13.3333 13.3333 14.5272 13.3333 16C13.3333 17.4727 14.5272 18.6666 16 18.6666Z" stroke="white" stroke-width="2.66667" stroke-linecap="round" stroke-linejoin="round"/>
</svg>
