<svg width="32" height="32" viewBox="0 0 32 32" fill="none" xmlns="http://www.w3.org/2000/svg">
<path d="M21.3333 26.6667V5.33332C21.3333 4.62608 21.0523 3.9478 20.5522 3.4477C20.0521 2.94761 19.3739 2.66666 18.6666 2.66666H13.3333C12.626 2.66666 11.9478 2.94761 11.4477 3.4477C10.9476 3.9478 10.6666 4.62608 10.6666 5.33332V26.6667" stroke="white" stroke-width="2.66667" stroke-linecap="round" stroke-linejoin="round"/>
<path d="M26.6666 8H5.33329C3.86053 8 2.66663 9.19391 2.66663 10.6667V24C2.66663 25.4728 3.86053 26.6667 5.33329 26.6667H26.6666C28.1394 26.6667 29.3333 25.4728 29.3333 24V10.6667C29.3333 9.19391 28.1394 8 26.6666 8Z" stroke="white" stroke-width="2.66667" stroke-linecap="round" stroke-linejoin="round"/>
</svg>
