<svg width="32" height="32" viewBox="0 0 32 32" fill="none" xmlns="http://www.w3.org/2000/svg">
<path d="M5.33337 2.66667V29.3333L8.00004 28L10.6667 29.3333L13.3333 28L16 29.3333L18.6667 28L21.3333 29.3333L24 28L26.6667 29.3333V2.66667L24 4L21.3333 2.66667L18.6667 4L16 2.66667L13.3333 4L10.6667 2.66667L8.00004 4L5.33337 2.66667Z" stroke="#5D4157" stroke-width="2.66667" stroke-linecap="round" stroke-linejoin="round"/>
<path d="M21.3333 10.6667H13.3333C12.6261 10.6667 11.9478 10.9476 11.4477 11.4477C10.9476 11.9478 10.6667 12.6261 10.6667 13.3333C10.6667 14.0406 10.9476 14.7189 11.4477 15.219C11.9478 15.719 12.6261 16 13.3333 16H18.6667C19.3739 16 20.0522 16.281 20.5523 16.781C21.0524 17.2811 21.3333 17.9594 21.3333 18.6667C21.3333 19.3739 21.0524 20.0522 20.5523 20.5523C20.0522 21.0524 19.3739 21.3333 18.6667 21.3333H10.6667" stroke="#5D4157" stroke-width="2.66667" stroke-linecap="round" stroke-linejoin="round"/>
<path d="M16 23.3333V8.66667" stroke="#5D4157" stroke-width="2.66667" stroke-linecap="round" stroke-linejoin="round"/>
</svg>
