<svg width="28" height="28" viewBox="0 0 28 28" fill="none" xmlns="http://www.w3.org/2000/svg">
<path d="M17.5 14L7.73147 23.7685C7.26734 24.2326 6.63784 24.4934 5.98147 24.4934C5.32509 24.4934 4.69559 24.2326 4.23147 23.7685C3.76734 23.3044 3.50659 22.6749 3.50659 22.0185C3.50659 21.3621 3.76734 20.7326 4.23147 20.2685L14 10.5" stroke="#5D4157" stroke-width="2.33333" stroke-linecap="round" stroke-linejoin="round"/>
<path d="M21 17.4999L25.6667 12.8333" stroke="#5D4157" stroke-width="2.33333" stroke-linecap="round" stroke-linejoin="round"/>
<path d="M25.0833 13.4167L22.8503 11.1837C22.4127 10.7462 22.1668 10.1528 22.1667 9.53404V8.1667L19.53 5.53004C18.2286 4.22942 16.4675 3.49345 14.6277 3.48137L10.5 3.45337L11.5733 4.41004C12.3357 5.08599 12.9461 5.91586 13.3644 6.84492C13.7827 7.77399 13.9993 8.78115 14 9.80004V11.6667L16.3333 14H17.7007C18.3195 14.0002 18.9129 14.2461 19.3503 14.6837L21.5833 16.9167" stroke="#5D4157" stroke-width="2.33333" stroke-linecap="round" stroke-linejoin="round"/>
</svg>
