<svg width="32" height="32" viewBox="0 0 32 32" fill="none" xmlns="http://www.w3.org/2000/svg">
<path d="M20 2.66666H7.99998C7.29274 2.66666 6.61446 2.94761 6.11436 3.4477C5.61426 3.9478 5.33331 4.62608 5.33331 5.33332V26.6667C5.33331 27.3739 5.61426 28.0522 6.11436 28.5523C6.61446 29.0524 7.29274 29.3333 7.99998 29.3333H24C24.7072 29.3333 25.3855 29.0524 25.8856 28.5523C26.3857 28.0522 26.6667 27.3739 26.6667 26.6667V9.33332L20 2.66666Z" stroke="#5D4157" stroke-width="2.66667" stroke-linecap="round" stroke-linejoin="round"/>
<path d="M18.6667 2.66666V7.99999C18.6667 8.70723 18.9476 9.38551 19.4477 9.88561C19.9478 10.3857 20.6261 10.6667 21.3333 10.6667H26.6667" stroke="#5D4157" stroke-width="2.66667" stroke-linecap="round" stroke-linejoin="round"/>
<path d="M12 20L14.6667 22.6667L20 17.3333" stroke="#5D4157" stroke-width="2.66667" stroke-linecap="round" stroke-linejoin="round"/>
</svg>
